<?xml version="1.0" encoding="utf-8"?>
<!-- Generator: Adobe Illustrator 27.3.1, SVG Export Plug-In . SVG Version: 6.00 Build 0)  -->
<svg version="1.1" id="Layer_1" xmlns="http://www.w3.org/2000/svg" xmlns:xlink="http://www.w3.org/1999/xlink" x="0px" y="0px"
	 viewBox="0 0 227 4" style="enable-background:new 0 0 227 4;" xml:space="preserve">
<style type="text/css">
	.st0{fill:#CC312F;}
</style>
<path class="st0" d="M0,2h0.1l0,0l0,0l0,0H0z"/>
<path class="st0" d="M15,1.4h0.3c0.3,0,0.5,0.2,0.5,0.6c0,0.3-0.2,0.6-0.5,0.6l0,0H15c-0.3,0-0.5-0.3-0.5-0.6S14.7,1.4,15,1.4z"/>
<path class="st0" d="M30.1,1h0.3c0.5,0,0.9,0.4,0.9,1s-0.4,1-0.9,1.1l0,0h-0.3c-0.5,0-0.9-0.5-0.9-1C29.2,1.4,29.6,1,30.1,1z"/>
<path class="st0" d="M45.3,0.6h0.3c0.7,0,1.2,0.6,1.2,1.4s-0.5,1.4-1.2,1.4l0,0h-0.3C44.6,3.4,44,2.7,44,2
	C44.1,1.2,44.6,0.6,45.3,0.6z"/>
<path class="st0" d="M60.4,0.4h0.3c0.8,0,1.5,0.7,1.5,1.6s-0.6,1.6-1.4,1.7l0,0h-0.3c-0.8,0-1.4-0.8-1.4-1.6
	C59,1.1,59.6,0.4,60.4,0.4z"/>
<path class="st0" d="M75.5,0.2h0.3c0.9,0,1.6,0.8,1.6,1.8s-0.7,1.8-1.6,1.8l0,0h-0.3c-0.9,0-1.6-0.8-1.6-1.8S74.6,0.2,75.5,0.2z"/>
<path class="st0" d="M90.7,0.1H91c1,0,1.7,0.9,1.7,1.9c0,1.1-0.8,1.9-1.7,1.9l0,0h-0.3C89.7,3.9,89,3,89,2
	C88.9,0.9,89.7,0.1,90.7,0.1z"/>
<path class="st0" d="M105.8,0h0.3c1,0,1.8,0.9,1.8,2s-0.8,2-1.8,2l0,0h-0.3c-1,0-1.8-0.9-1.8-2S104.8,0,105.8,0z"/>
<path class="st0" d="M120.9,0h0.3c1,0,1.8,0.9,1.8,2s-0.8,2-1.8,2h-0.3c-1,0-1.8-0.9-1.8-2S119.9,0,120.9,0L120.9,0z"/>
<path class="st0" d="M136.1,0.1h0.3c1,0,1.7,0.9,1.7,2S137.3,4,136.4,4h-0.3c-1,0-1.7-0.9-1.7-1.9C134.3,0.9,135.1,0.1,136.1,0.1
	L136.1,0.1z"/>
<path class="st0" d="M151.2,0.2h0.3c0.9,0,1.6,0.8,1.6,1.8s-0.7,1.8-1.6,1.8h-0.3c-0.9,0-1.6-0.8-1.6-1.8
	C149.5,1,150.3,0.2,151.2,0.2L151.2,0.2z"/>
<path class="st0" d="M166.3,0.4h0.3c0.8,0,1.4,0.8,1.4,1.7s-0.6,1.6-1.4,1.6h-0.3c-0.8,0-1.5-0.7-1.5-1.6
	C164.8,1.1,165.5,0.4,166.3,0.4L166.3,0.4z"/>
<path class="st0" d="M181.5,0.6h0.3c0.7,0,1.2,0.6,1.2,1.4c0,0.7-0.5,1.3-1.2,1.4h-0.3c-0.7,0-1.2-0.6-1.3-1.4
	C180.2,1.3,180.7,0.6,181.5,0.6C181.4,0.6,181.4,0.6,181.5,0.6z"/>
<path class="st0" d="M196.6,1h0.3c0.5,0,0.9,0.5,0.9,1.1s-0.4,1-0.9,1h-0.3c-0.5,0-0.9-0.4-0.9-1C195.6,1.4,196,1,196.6,1L196.6,1z"
	/>
<path class="st0" d="M211.7,1.4h0.3c0.3,0,0.5,0.3,0.5,0.6s-0.2,0.6-0.5,0.6h-0.3c-0.3,0-0.5-0.2-0.5-0.6
	C211.2,1.7,211.4,1.4,211.7,1.4L211.7,1.4z"/>
<path class="st0" d="M226.9,2h0.1H226.9C226.8,2,226.8,2,226.9,2C226.8,2,226.8,2,226.9,2L226.9,2z"/>
</svg>
